# xmcd
#
# Track frame offsets: 
#        150
#        11911
#        25957
#        38426
#        52167
#        64562
#        81427
#        92019
#        110170
#        122117
#
# Disc length: 1762 seconds
#
# Revision: 0
# Processed by: cddbd v1.5.2PL0 Copyright (c) Steve Scherf et al.
# Submitted via: ExactAudioCopy v0.99pb4
#
DISCID=8406e00a
DTITLE=Johnny Cash - Greatest Hits [CD1]
DYEAR=2008
DGENRE=Country
TTITLE0=Ring of Fire
TTITLE1=Orange Blossom Special
TTITLE2=Jackson
TTITLE3=Don't Take Your Guns to Town
TTITLE4=I Walk the Line
TTITLE5=(Ghost) Riders in the Sky
TTITLE6=Daddy Sang Bass
TTITLE7=One Piece at a Time
TTITLE8=I'm So Lonesome I Could Cry
TTITLE9=Hey Porter
EXTD=
EXTT0=
EXTT1=
EXTT2=
EXTT3=
EXTT4=
EXTT5=
EXTT6=
EXTT7=
EXTT8=
EXTT9=
PLAYORDER=
